# xmcd
#
# Track frame offsets:
#	150
#	16802
#	42750
#	68710
#
# Disc length: 1307 seconds
#
# Revision: 3
# Processed by: cddbd v1.5.2PL0 Copyright (c) Steve Scherf et al.
# Submitted via: audiograbber 1.83.01
#
DISCID=26051904
DTITLE=24th Street - Maxi CD - Get down on it (LC 6813)
DYEAR=1900
DGENRE=Black
TTITLE0=Get down on it (Radio Mix)
TTITLE1=Get down on it (Extended Version)
TTITLE2=Get down on it (Club Mix)
TTITLE3=Indian Summer
EXTD=
EXTT0=
EXTT1=
EXTT2=
EXTT3=
PLAYORDER=
